<?xml version="1.0" encoding="utf-8"?>
<!-- Uploaded to: SVG Repo, www.svgrepo.com, Generator: SVG Repo Mixer Tools -->
<svg width="800px" height="800px" viewBox="0 0 1024 1024" fill="rgb(66, 66, 66)" class="icon"  version="1.1" xmlns="http://www.w3.org/2000/svg"><path d="M983.902 815.94H40.096c-22.05 0-39.992-17.934-39.992-39.992V248.056c0-22.058 17.942-39.992 39.992-39.992h943.806c22.058 0 39.992 17.934 39.992 39.992v527.892c0 22.058-17.934 39.992-39.992 39.992zM40.096 224.06c-13.23 0-23.994 10.762-23.994 23.996v527.892c0 13.23 10.764 23.994 23.994 23.994h943.806c13.23 0 23.992-10.764 23.992-23.994V248.056c0-13.232-10.762-23.996-23.992-23.996H40.096zM98.476 899.438c-7.654 0-15.168-2.234-21.77-6.53-8.982-5.86-15.128-14.826-17.316-25.262l-7.138-34.07a7.99 7.99 0 0 1 6.186-9.466c4.282-1 8.57 1.874 9.466 6.186l7.14 34.07c1.312 6.25 5.006 11.624 10.396 15.138 5.406 3.53 11.794 4.716 18.004 3.404L387.68 823.36c4.282-0.968 8.57 1.86 9.466 6.186a7.988 7.988 0 0 1-6.186 9.466L106.74 898.562a40.158 40.158 0 0 1-8.264 0.876zM638.348 200.066a7.99 7.99 0 0 1-7.812-6.358 7.992 7.992 0 0 1 6.188-9.466l280.582-58.816c21.622-4.546 42.79 9.358 47.336 30.932l7.136 34.07a7.99 7.99 0 0 1-6.184 9.466c-4.25 0.968-8.578-1.86-9.468-6.186l-7.136-34.072c-2.718-12.95-15.422-21.214-28.402-18.558L640.004 199.894a7.514 7.514 0 0 1-1.656 0.172z" fill="" /><path d="M983.902 815.94H40.096c-22.05 0-39.992-17.934-39.992-39.992V248.056c0-22.058 17.942-39.992 39.992-39.992h943.806c22.058 0 39.992 17.934 39.992 39.992v527.892c0 22.058-17.934 39.992-39.992 39.992zM40.096 224.06c-13.23 0-23.994 10.762-23.994 23.996v527.892c0 13.23 10.764 23.994 23.994 23.994h943.806c13.23 0 23.992-10.764 23.992-23.994V248.056c0-13.232-10.762-23.996-23.992-23.996H40.096zM218.068 999.728c-3.49 0-7.014-0.454-10.49-1.39-10.35-2.766-18.972-9.374-24.284-18.59l-36.868-63.862a7.988 7.988 0 0 1 2.93-10.92c3.802-2.234 8.716-0.906 10.926 2.922l36.868 63.862c3.178 5.514 8.358 9.466 14.576 11.138 6.194 1.656 12.67 0.844 18.208-2.36l269.382-155.514c3.804-2.25 8.702-0.906 10.926 2.92a7.988 7.988 0 0 1-2.928 10.92l-269.382 155.532a39.544 39.544 0 0 1-19.864 5.342zM520.692 200.066a8.004 8.004 0 0 1-6.934-4 7.986 7.986 0 0 1 2.93-10.92l269.378-155.53c9.204-5.326 19.934-6.716 30.34-3.968 10.34 2.78 18.964 9.374 24.274 18.59l36.82 63.816a7.978 7.978 0 0 1-2.918 10.918 7.988 7.988 0 0 1-10.922-2.92l-36.836-63.814c-3.188-5.516-8.36-9.466-14.558-11.138-6.266-1.64-12.714-0.828-18.2 2.36L524.684 198.988a7.894 7.894 0 0 1-3.992 1.078z" fill="" /><path d="M983.902 320.04H40.096a7.994 7.994 0 0 1-7.998-7.998 7.994 7.994 0 0 1 7.998-7.998h943.806a7.994 7.994 0 0 1 7.996 7.998 7.992 7.992 0 0 1-7.996 7.998zM983.902 432.018H40.096a7.994 7.994 0 0 1-7.998-8 7.994 7.994 0 0 1 7.998-7.998h943.806a7.994 7.994 0 0 1 7.996 7.998c0 4.422-3.578 8-7.996 8zM72.09 396.696a7.99 7.99 0 0 1-7.53-10.7l15.996-44.662c1.492-4.17 6.076-6.28 10.224-4.828a7.992 7.992 0 0 1 4.834 10.232l-15.996 44.664a7.994 7.994 0 0 1-7.528 5.294zM120.082 396.696a7.99 7.99 0 0 1-7.53-10.7l15.998-44.662c1.492-4.17 6.084-6.28 10.224-4.828a7.994 7.994 0 0 1 4.834 10.232l-15.996 44.664a8.004 8.004 0 0 1-7.53 5.294zM168.056 396.696a7.99 7.99 0 0 1-7.53-10.7l15.998-44.662c1.484-4.17 6.076-6.28 10.224-4.828a7.994 7.994 0 0 1 4.834 10.232l-15.996 44.664a8.004 8.004 0 0 1-7.53 5.294zM216.03 396.696a7.992 7.992 0 0 1-7.53-10.7l15.998-44.662c1.492-4.17 6.068-6.28 10.224-4.828a7.99 7.99 0 0 1 4.834 10.232l-15.996 44.664a8 8 0 0 1-7.53 5.294zM264.02 396.696a7.992 7.992 0 0 1-7.53-10.7l15.998-44.662c1.484-4.17 6.078-6.28 10.224-4.828a7.99 7.99 0 0 1 4.834 10.232l-15.996 44.664a8 8 0 0 1-7.53 5.294zM312.008 396.696a7.992 7.992 0 0 1-7.53-10.7l15.998-44.662c1.492-4.17 6.054-6.28 10.224-4.828a7.99 7.99 0 0 1 4.834 10.232l-15.998 44.664a7.992 7.992 0 0 1-7.528 5.294zM359.984 396.696a7.99 7.99 0 0 1-7.528-10.7l15.998-44.662c1.5-4.17 6.084-6.28 10.224-4.828a7.992 7.992 0 0 1 4.836 10.232l-15.998 44.664a8.006 8.006 0 0 1-7.532 5.294zM407.958 396.696a7.99 7.99 0 0 1-7.528-10.7l15.996-44.662c1.492-4.17 6.078-6.28 10.224-4.828a7.992 7.992 0 0 1 4.836 10.232l-15.998 44.664a8 8 0 0 1-7.53 5.294zM455.948 396.696a7.99 7.99 0 0 1-7.528-10.7l15.996-44.662c1.484-4.17 6.084-6.28 10.224-4.828a7.99 7.99 0 0 1 4.834 10.232l-15.998 44.664a7.994 7.994 0 0 1-7.528 5.294zM503.938 396.696a7.992 7.992 0 0 1-7.53-10.7l15.996-44.662c1.492-4.17 6.06-6.28 10.224-4.828a8 8 0 0 1 4.836 10.232l-15.998 44.664a7.994 7.994 0 0 1-7.528 5.294zM551.914 396.696a8 8 0 0 1-7.532-10.7l15.996-44.662c1.484-4.14 6.078-6.264 10.234-4.828a8.002 8.002 0 0 1 4.824 10.232l-15.996 44.664a7.996 7.996 0 0 1-7.526 5.294zM599.886 396.696c-0.89 0-1.812-0.156-2.704-0.468-4.156-1.484-6.308-6.06-4.828-10.232l16-44.662c1.5-4.14 6.074-6.264 10.23-4.828a8 8 0 0 1 4.828 10.232l-15.996 44.664a7.998 7.998 0 0 1-7.53 5.294zM647.878 396.696a8 8 0 0 1-7.532-10.7l15.996-44.662c1.484-4.14 6.078-6.264 10.234-4.828a8.002 8.002 0 0 1 4.824 10.232l-15.996 44.664a7.996 7.996 0 0 1-7.526 5.294zM695.868 396.696a8 8 0 0 1-7.532-10.7l16-44.662c1.496-4.14 6.058-6.264 10.23-4.828a8 8 0 0 1 4.828 10.232l-15.996 44.664a8 8 0 0 1-7.53 5.294zM743.856 396.696a8 8 0 0 1-7.528-10.7l15.996-44.662c1.5-4.14 6.078-6.264 10.23-4.828a8 8 0 0 1 4.828 10.232l-15.996 44.664a8 8 0 0 1-7.53 5.294zM791.848 396.696a8 8 0 0 1-7.532-10.7l15.996-44.662c1.484-4.14 6.094-6.264 10.234-4.828a8 8 0 0 1 4.828 10.232l-15.996 44.664a8 8 0 0 1-7.53 5.294zM839.836 396.696a8 8 0 0 1-7.528-10.7l15.996-44.662c1.5-4.14 6.062-6.264 10.23-4.828a8 8 0 0 1 4.828 10.232l-15.996 44.664a7.998 7.998 0 0 1-7.53 5.294zM887.828 396.696a8 8 0 0 1-7.532-10.7l15.996-44.662c1.484-4.14 6.078-6.264 10.234-4.828 4.156 1.484 6.308 6.062 4.828 10.232l-16 44.664a7.992 7.992 0 0 1-7.526 5.294zM935.816 396.696c-0.89 0-1.812-0.156-2.704-0.468a8.002 8.002 0 0 1-4.824-10.232l15.996-44.662c1.5-4.14 6.062-6.264 10.23-4.828a8 8 0 0 1 4.828 10.232l-15.996 44.664a7.998 7.998 0 0 1-7.53 5.294zM120.026 671.906a8 8 0 0 1-6.414-3.204c-11.466-15.324-17.528-33.554-17.528-52.722 0-48.506 39.468-87.982 87.982-87.982a7.994 7.994 0 0 1 7.998 7.998 7.994 7.994 0 0 1-7.998 7.998c-39.696 0-71.986 32.292-71.986 71.986 0 15.684 4.96 30.604 14.34 43.13a8.008 8.008 0 0 1-1.61 11.202 7.94 7.94 0 0 1-4.784 1.594zM184.068 703.962a7.994 7.994 0 0 1-7.998-8 7.994 7.994 0 0 1 7.998-7.998c39.696 0 71.984-32.29 71.984-71.984 0-10.03-2.014-19.73-5.998-28.822a7.988 7.988 0 0 1 4.116-10.53c4.078-1.75 8.772 0.062 10.538 4.124 4.874 11.124 7.342 22.98 7.342 35.228-0.002 48.506-39.468 87.982-87.982 87.982z" fill="" /><path d="M168.072 607.982a7.996 7.996 0 0 1-5.656-13.654l95.98-95.982a7.996 7.996 0 1 1 11.31 11.31l-95.98 95.982a7.964 7.964 0 0 1-5.654 2.344z" fill="" /><path d="M200.064 639.974a7.972 7.972 0 0 1-5.654-2.344l-31.994-31.992a7.996 7.996 0 1 1 11.31-11.31l31.994 31.994a7.994 7.994 0 0 1-5.656 13.652z" fill="" /><path d="M104.084 735.956a7.994 7.994 0 0 1-5.656-13.652l95.98-95.98a7.996 7.996 0 1 1 11.31 11.308l-95.98 95.98a7.972 7.972 0 0 1-5.654 2.344zM663.968 575.988H360.03c-4.42 0-7.998-3.576-7.998-7.998s3.578-7.998 7.998-7.998h303.938c4.418 0 7.996 3.576 7.996 7.998s-3.578 7.998-7.996 7.998zM663.968 623.978H360.03a7.994 7.994 0 0 1-7.998-7.998 7.994 7.994 0 0 1 7.998-7.998h303.938a7.992 7.992 0 0 1 7.996 7.998 7.994 7.994 0 0 1-7.996 7.998z" fill="" /><path d="M504 671.968h-143.97a7.994 7.994 0 0 1-7.998-7.998c0-4.422 3.578-8 7.998-8H504a7.994 7.994 0 0 1 7.998 8 7.992 7.992 0 0 1-7.998 7.998z" fill="" /><path d="M791.942 607.982c-22.058 0-39.992-17.934-39.992-39.992s17.934-39.992 39.992-39.992 39.992 17.934 39.992 39.992-17.934 39.992-39.992 39.992z m0-63.988c-13.23 0-23.996 10.764-23.996 23.996 0 13.23 10.766 23.996 23.996 23.996s23.996-10.766 23.996-23.996c0-13.232-10.766-23.996-23.996-23.996z" fill="" /><path d="M887.922 703.962c-22.058 0-39.992-17.934-39.992-39.992s17.934-39.992 39.992-39.992 39.992 17.934 39.992 39.992-17.934 39.992-39.992 39.992z m0-63.988c-13.23 0-23.996 10.764-23.996 23.996 0 13.23 10.766 23.994 23.996 23.994s23.996-10.764 23.996-23.994c0-13.232-10.766-23.996-23.996-23.996z" fill="" /><path d="M759.886 703.9a7.996 7.996 0 0 1-5.656-13.654l159.886-159.904a8 8 0 0 1 11.312 11.31l-159.89 159.904a7.962 7.962 0 0 1-5.652 2.344z" fill="" /></svg>